<svg xmlns="http://www.w3.org/2000/svg" version="1.1" viewBox="-5.0 -10.0 110.0 135.0">
 <path d="m87.859 44.949c-0.55078 0.058593-0.94531 0.55078-0.88672 1.1016 0.14062 1.2969 0.21094 2.6172 0.21094 3.9219 0 20.062-16.324 36.387-36.387 36.387-2.8086 0-5.5625-0.32422-8.2461-0.94531-2.4805-5.9609 0.69141-11.402 3.7188-13.258 0.58984-0.35938 1.332-0.71484 2.1172-1.0859 3.0352-1.4414 7.1953-3.418 7.8594-8.6289 0.55859-4.3984 5.8008-7.293 16.023-8.8477 2.9727-0.45312 5.5352-3.0195 7.6094-7.6328 0.22656-0.50391 0.003906-1.0938-0.50391-1.3203-0.50391-0.22656-1.0938 0-1.3203 0.5-1.7773 3.9531-3.8281 6.1328-6.0859 6.4766-11.227 1.707-17.02 5.168-17.707 10.574-0.52344 4.125-3.8242 5.6953-6.7305 7.0781-0.83594 0.39453-1.6211 0.76953-2.3047 1.1875-4 2.4492-6.7422 8.3867-5.0117 14.336-1.4414-0.4375-2.8633-0.95703-4.2539-1.5781-0.50781-0.22656-1.0977 0-1.3203 0.50391-0.22656 0.50391 0 1.0977 0.50391 1.3203 2.0703 0.92578 4.2031 1.6484 6.3828 2.1914 0.015625 0.003906 0.03125 0.007812 0.046875 0.011719 2.9961 0.73828 6.0781 1.125 9.2266 1.125 21.168 0 38.387-17.219 38.387-38.387 0-1.375-0.074219-2.7656-0.22266-4.1367-0.0625-0.55469-0.53906-0.95312-1.1055-0.89453z"/>
 <path d="m47.566 13.727c1.0625-0.09375 2.1484-0.14062 3.2266-0.14062 9.0352 0 17.699 3.3359 24.395 9.3867 0.19141 0.17188 0.43359 0.25781 0.67188 0.25781 0.27344 0 0.54297-0.10938 0.74219-0.32812 0.37109-0.41016 0.33984-1.043-0.070312-1.4141-7.0625-6.3867-16.203-9.9062-25.734-9.9062-1.1367 0-2.2812 0.050781-3.4023 0.14844-0.55078 0.046875-0.95703 0.53516-0.90625 1.0859 0.042969 0.55078 0.51953 0.96094 1.0781 0.91016z"/>
 <path d="m23.82 25.086c0.26172 0 0.52344-0.10156 0.72266-0.30859 2.9375-3.0586 6.3477-5.5625 10.133-7.4375 0.49609-0.24609 0.69922-0.84375 0.45312-1.3398-0.24609-0.49219-0.84375-0.69922-1.3398-0.45312-3.9922 1.9766-7.5898 4.6172-10.688 7.8438-0.38281 0.39844-0.36719 1.0312 0.027344 1.4141 0.19141 0.19141 0.44141 0.28125 0.69141 0.28125z"/>
 <path d="m15.688 37.051c-0.52344-0.17578-1.0898 0.10547-1.2695 0.62891-1.3359 3.9492-2.0117 8.0859-2.0117 12.293 0 2.1406 0.17969 4.2891 0.52734 6.3867 0.082031 0.48828 0.50781 0.83594 0.98438 0.83594 0.054687 0 0.10938-0.003906 0.16406-0.015624 0.54688-0.089844 0.91016-0.60547 0.82031-1.1523-0.33203-1.9883-0.50391-4.0273-0.50391-6.0586 0-3.9883 0.64062-7.9102 1.9062-11.652 0.1875-0.51953-0.09375-1.0898-0.61719-1.2656z"/>
 <path d="m27.301 59.93v-8.5312c0-0.55078-0.44922-1-1-1h-7.8398c-0.55859 0-1 0.44922-1 1v8.5312h2v-7.5312h5.8398v7.5312z"/>
 <path d="m30.332 61.934h-15.906c-1.5078 0-2.7344 1.2266-2.7344 2.7344v22.184c0 1.5078 1.2266 2.7344 2.7344 2.7344h15.906c1.5078 0 2.7344-1.2266 2.7344-2.7344v-22.184c0-1.5078-1.2266-2.7344-2.7344-2.7344zm-10.168 18.09c0 0.55078-0.44531 1-1 1-0.55469 0-1-0.44922-1-1v-8.5234c0-0.55078 0.44531-1 1-1 0.55469 0 1 0.44922 1 1zm6.4297 0c0 0.55078-0.44531 1-1 1s-1-0.44922-1-1v-8.5234c0-0.55078 0.44531-1 1-1s1 0.44922 1 1z"/>
 <path d="m95.75 34.527c-0.003906-0.011719-0.003906-0.019532-0.007812-0.03125-1.0078-3.8281-4.918-6.9727-10.215-8.2148-0.10547-0.023438-0.24219-0.046875-0.38281-0.070312l-0.03125-0.003907c-0.070312-0.019531-0.14453-0.03125-0.22266-0.035156-2.625-0.39844-9.8867-0.55859-21.594-0.46875l-21.645-15.109c-0.32422-0.22656-0.75391-0.23828-1.0938-0.035156l-4.2617 2.5977c-0.26172 0.16016-0.4375 0.42969-0.47266 0.73438-0.035157 0.30469 0.066406 0.60938 0.28125 0.82422l11.125 11.207c-15.16 0.28125-29.836 0.72656-32.727 0.8125l-4.0312-5.2461c-0.22656-0.29297-0.59375-0.4375-0.95312-0.37891l-4.6758 0.76172c-0.30859 0.050781-0.57422 0.24219-0.72266 0.51562-0.14453 0.27344-0.15625 0.60547-0.027344 0.88672l3.2773 7.1602 1.2148 4.2891c0.11328 0.39844 0.45703 0.6875 0.87109 0.72266l34.742 3.2109-11.586 10.293c-0.23047 0.20703-0.35547 0.50781-0.33594 0.81641 0.019531 0.30859 0.18359 0.58984 0.44141 0.76172l4.1484 2.7734c0.16797 0.11328 0.35937 0.16797 0.55469 0.16797 0.18359 0 0.36328-0.050781 0.52344-0.14844l21.555-13.246 26.152 2.418c0.91016 0.042968 8.875 0.30078 10.047-3.8867 0.38281-1.3594 0.40234-2.7305 0.050781-4.0781z"/>
<text x="0.0" y="117.5" font-size="5.0" font-weight="bold" font-family="Arbeit Regular, Helvetica, Arial-Unicode, Arial, Sans-serif" fill="#000000">Created by anggun</text><text x="0.0" y="122.5" font-size="5.0" font-weight="bold" font-family="Arbeit Regular, Helvetica, Arial-Unicode, Arial, Sans-serif" fill="#000000">from Noun Project</text></svg>